<?xml version="1.0" encoding="utf-8"?>
<!-- Generator: Adobe Illustrator 26.1.0, SVG Export Plug-In . SVG Version: 6.00 Build 0)  -->
<svg version="1.1" id="Layer_1" xmlns="http://www.w3.org/2000/svg" xmlns:xlink="http://www.w3.org/1999/xlink" x="0px" y="0px"
	 viewBox="0 0 280.51 291.6" style="enable-background:new 0 0 280.51 291.6;" xml:space="preserve">
<style type="text/css">
	.st0{fill:#343434;}
	.st1{fill:url(#SVGID_1_);}
	.st2{fill:url(#SVGID_00000024683174933550853300000003241862811307920542_);}
	.st3{fill:#FFED00;}
	.st4{fill:url(#SVGID_00000072965028454089692710000011692111174269054907_);}
	.st5{fill:url(#SVGID_00000077296154153766468820000007414412344530719138_);}
</style>
<rect x="601.01" y="0.78" className="st0" width="280.51" height="290.05"/>
<g>
	<g>
		<rect x="151.66" y="196.83" className="st0" width="5.64" height="29.57"/>
		<path className="st0" d="M102.57,221.08c-0.33,0-0.65,0-0.99-0.04c-1.37-0.14-2.21-1.04-2.25-2.42c0-0.14,0-0.27,0-0.41l0-3.58
			c0-4.99,0-9.97,0-14.96c0-1.57-1.28-2.85-2.85-2.85l0,0c-1.57,0-2.85,1.28-2.85,2.85l0,1.23c0,6.23,0,12.47,0.01,18.7
			c0,0.52,0.04,1.08,0.13,1.65c0.32,2.14,1.47,3.57,3.53,4.37c1.33,0.52,2.84,0.75,4.88,0.75c5.7,0,11.4,0,17.1,0l16.24,0v-5.31
			h-6.67C120.08,221.09,111.33,221.09,102.57,221.08z"/>
		<g>
			<radialGradient id="SVGID_1_" cx="220.8319" cy="210.7915" r="2.8251" gradientUnits="userSpaceOnUse">
				<stop  offset="0.1683" style="stop-color:#48BAEC"/>
				<stop  offset="1" style="stop-color:#1764AF"/>
			</radialGradient>
			<path className="st1" d="M220.83,207.97L220.83,207.97c-1.56,0-2.83,1.26-2.83,2.83l0,0c0,1.56,1.26,2.83,2.83,2.83l0,0
				c1.56,0,2.83-1.26,2.83-2.83l0,0C223.66,209.23,222.39,207.97,220.83,207.97z"/>
			<path className="st0" d="M233.37,210.5c0-0.28,0.12-0.54,0.32-0.73l13.88-12.93l-2.08,0c-1.87,0-3.74,0-5.61-0.01
				c-3.79,3.79-7.26,7.24-10.6,10.54v6.86c0,0,0,0,0,0c4.37,4.52,8.24,8.5,11.83,12.19c1.96,0.01,3.92,0.01,5.89,0.01l1.97,0
				l-15.3-15.2C233.47,211.05,233.36,210.78,233.37,210.5z"/>
		</g>
		<g>
			
				<radialGradient id="SVGID_00000002368477626247771230000011151669247853958545_" cx="57.3915" cy="213.2828" r="2.6485" gradientUnits="userSpaceOnUse">
				<stop  offset="0.1683" style="stop-color:#48BAEC"/>
				<stop  offset="1" style="stop-color:#1764AF"/>
			</radialGradient>
			<path style="fill:url(#SVGID_00000002368477626247771230000011151669247853958545_);" d="M57.39,210.63L57.39,210.63
				c-1.46,0-2.65,1.19-2.65,2.65l0,0c0,1.46,1.19,2.65,2.65,2.65l0,0c1.46,0,2.65-1.19,2.65-2.65l0,0
				C60.04,211.82,58.85,210.63,57.39,210.63z"/>
			<path className="st0" d="M76.35,231.04c-1.41-1.41-2.87-2.86-3.68-3.71c-0.01-0.01-0.02-0.02-0.02-0.02
				c-0.35-0.19-0.55-0.56-0.53-0.95c0.02-0.4,0.28-0.74,0.65-0.88c1.9-0.74,3.21-1.91,4.01-3.57c0.61-1.26,0.89-2.74,0.9-4.64
				l0-0.09c0.01-3.61,0.02-7.34-0.01-11c-0.01-1.03-0.1-2.01-0.28-2.91c-0.48-2.46-1.79-4.17-4.02-5.22c-1.69-0.8-3.6-1.18-5.99-1.2
				c-1.55-0.01-3.24-0.02-5.29-0.02c-1.25,0-2.5,0-3.76,0c-1.25,0-2.51,0-3.76,0c-0.03,0-0.06,0-0.09,0l-6.82,0
				c-1.72,0-3.45,0-5.17,0l-0.04,0c-1.69,0-3.15,0.15-4.46,0.46c-1.85,0.44-3.21,1.14-4.26,2.2c-1.39,1.4-2.12,3.23-2.15,5.43
				c-0.06,3.53-0.05,7.12-0.03,10.59c0,0.84,0.01,1.68,0.01,2.52c0,0.48,0.05,1,0.17,1.64c0.5,2.87,2.04,4.77,4.7,5.81
				c1.59,0.62,3.37,0.93,5.42,0.93c7.37,0.02,14.75,0.01,22.12,0h0c0.26,0,0.52,0.1,0.71,0.29c0.79,0.76,1.74,1.68,2.68,2.58
				c1.3,1.25,2.6,2.5,3.48,3.36h7.1C77.45,232.14,76.91,231.6,76.35,231.04z M71.96,217.52c-0.01,1.67-1.06,2.92-2.82,3.35
				c-0.56,0.14-0.93,0.23-1.3,0.23c-0.07,0-0.13,0-0.19-0.01c-0.02,0-0.04,0-0.05,0l-18.68,0c-2.15,0-4.3,0-6.45,0
				c-1.03,0-2.2-0.05-3.34-0.61c-1.21-0.6-1.88-1.67-1.88-3.02c-0.01-3.43-0.01-7.12,0-11.64c0-1.66,1.03-2.94,2.67-3.35
				c0.83-0.21,1.64-0.31,2.4-0.31c3.97-0.01,8.3-0.01,13.62-0.01c2.94,0,5.88,0,8.82,0l2.17,0c0.99,0,2.15,0.08,3.27,0.68
				c1.15,0.61,1.78,1.65,1.78,2.93C71.97,210.12,71.97,213.97,71.96,217.52z"/>
		</g>
		<path className="st0" d="M181.43,221.06l-0.32,0c-0.16,0-0.31,0-0.47-0.01c-1.52-0.07-2.47-1.06-2.47-2.56c0-3.52,0-7.04,0-10.55
			l0-3.25c0-0.13,0-0.24,0.01-0.34c0.1-1.09,0.78-1.87,1.83-2.09c0.38-0.08,0.8-0.12,1.31-0.12c1.9,0,10.33,0,14.02,0c0,0,0,0,0,0
			H199c1.47,0,2.65-1.19,2.65-2.65l0,0c0-1.47-1.19-2.65-2.65-2.65l-5.37,0c-5.25,0-11.05,0-13.19,0c-1.23,0-2.42,0.16-3.52,0.47
			c-1.95,0.55-3.19,1.52-3.89,3.04c-0.41,0.9-0.61,1.92-0.61,3.23c0,4.88,0,10.08,0,15.16c0,0.63,0.01,1.37,0.08,2.08
			c0.24,2.32,1.37,3.88,3.46,4.74c1.73,0.72,3.6,0.81,5.03,0.81l18.75,0h16.23v-5.31L181.43,221.06z"/>
	</g>
	<g>
		<path className="st3" d="M194.19,83.1c0,0.01,0,0.01,0,0.02c0.01,0,0.03,0,0.04,0C194.22,83.11,194.2,83.1,194.19,83.1z"/>
		<g>
			<path className="st0" d="M188.12,147.62c5.06,7.59,10.11,15.17,15.17,22.76c0.15,0.23,0.41,0.37,0.69,0.37l9.02,0.05
				c0.46,0,0.84-0.37,0.84-0.83c0.03-15.7,0.05-31.4,0.08-47.11c0-0.84-1.08-1.16-1.53-0.45c-2.78,4.41-6.67,9.61-12.05,14.73
				c-4.2,4-8.36,7.04-11.98,9.33C187.96,146.72,187.86,147.23,188.12,147.62z"/>
			<path className="st0" d="M151.87,159.9l6.61,10.24l0.23,0.36l27.08,0.24c0.83,0.01,1.33-0.93,0.85-1.61l-11.03-15.75
				c-7.25,3.15-15,5.35-23.09,6.46C152.31,159.86,152.09,159.87,151.87,159.9z"/>
			<path className="st0" d="M78.31,144.67l-17.13,24.46c-0.48,0.68,0.02,1.62,0.85,1.61l26.52-0.24c0.34,0,0.67-0.18,0.85-0.47
				l10.78-16.7l-1.35-0.46C92.01,150.54,85.12,147.77,78.31,144.67z"/>
			<path className="st0" d="M103.69,144.46c0.66,0.08,1.39,0.16,2.09,0.24l17.28-26.75c0.4-0.63,1.32-0.63,1.72,0l16.27,25.19
				c0.26-0.06,0.54-0.11,0.8-0.18c7.31-1.87,14.14-4.81,20.36-8.72l-37.46-53.49c-0.41-0.58-1.27-0.58-1.68,0L81.7,139.84
				c7.47,2.18,14.46,3.69,21.21,4.53L103.69,144.46z"/>
			<g>
				
					<radialGradient id="SVGID_00000134958106752979797790000009105548021861435786_" cx="204.4951" cy="99.8876" r="15.0125" gradientUnits="userSpaceOnUse">
					<stop  offset="0.1683" style="stop-color:#48BAEC"/>
					<stop  offset="1" style="stop-color:#1764AF"/>
				</radialGradient>
				<path style="fill:url(#SVGID_00000134958106752979797790000009105548021861435786_);" d="M218.28,93.94
					c-2.3-5.33-7.61-9.06-13.78-9.06c-8.29,0-15.01,6.72-15.01,15.01c0,1.56,0.25,3.06,0.7,4.47c0.84,2.67,2.38,5.02,4.44,6.82
					c2.64,2.31,6.09,3.73,9.88,3.73c6.44,0,11.91-4.06,14.05-9.76c0.61-1.64,0.96-3.4,0.96-5.26
					C219.51,97.77,219.07,95.76,218.28,93.94z"/>
				
					<radialGradient id="SVGID_00000144321592678058790290000013608705343601388196_" cx="143.1539" cy="135.3658" r="50.725" gradientUnits="userSpaceOnUse">
					<stop  offset="0.1683" style="stop-color:#48BAEC"/>
					<stop  offset="1" style="stop-color:#1764AF"/>
				</radialGradient>
				<path style="fill:url(#SVGID_00000144321592678058790290000013608705343601388196_);" d="M191.12,115.17
					c-0.94-0.83-1.81-1.75-2.59-2.74c-0.25-0.32-0.65-0.39-0.97-0.23c-0.14,0.07-0.24,0.18-0.29,0.24
					c-0.02,0.03-0.04,0.06-0.04,0.06c-5.38,8.67-14.61,16.67-14.61,16.67c-4,3.47-7.5,5.77-9.18,6.82
					c-2.53,1.59-10.09,6.12-21.06,9.04c-9.39,2.49-16.86,2.63-22.34,2.69c-2.2,0.02-8.7,0.03-17.39-1.24
					c-16.68-2.43-27.08-7.44-27.35-6.76c-0.29,0.73,11.56,6.51,24.23,11.15c7.41,2.71,13.56,4.51,19.72,5.71
					c3.97,0.77,10.85,2.04,19.97,2.04c4.5,0,8.37-0.35,11.37-0.72c7.56-0.93,13.15-2.54,14.59-2.97
					c12.15-3.6,20.88-9.33,25.07-12.37c7.23-5.24,12-10.5,14.36-13.28c2.59-3.06,4.66-5.97,6.29-8.5c0.45-0.69-0.21-1.55-1.01-1.32
					C203.34,121.28,196.2,119.63,191.12,115.17z"/>
			</g>
		</g>
	</g>
</g>
</svg>
